<svg version="1" xmlns="http://www.w3.org/2000/svg" width="684" height="684" viewBox="0 0 513.000000 513.000000"><path d="M236.9.4c-.2.2-3.3.6-6.9 1-5.8.5-19.1 2.6-27.4 4.1-9.8 1.9-32.8 9-43.6 13.5C92.7 46.6 41 99.9 16.1 166.7c-3.8 10.2-9.3 28.7-10.5 35-.2 1.5-.9 5.3-1.5 8.3C1.2 225.9.5 234.4.6 257c0 11.3.4 23.4.8 27 .5 3.6 1 7.2 1.1 8 4.1 33.7 18.8 72.6 39 103.5 27.1 41.6 65.1 74.1 110.2 94.3 19 8.5 43.9 16 62.8 18.8 2.2.3 5.1.8 6.5 1 8.1 1.3 17.6 1.9 34.5 1.9 23.9 0 37.6-1.4 56.5-5.7 59-13.4 111.2-46.9 148.1-95.3 6.8-8.9 15.9-23 20.3-31.5 2.2-4.1 4.7-8.9 5.6-10.5 9.4-17.2 20.7-53.9 23.6-77 .3-2.8.8-6.1 1-7.5.9-4.9 1.2-45.6.4-52.5-1.6-13.6-2-16.1-4.1-26.5-11.5-57.4-44.1-111.1-89.9-147.9-24.8-20-58.1-37.8-85-45.7-14.2-4.1-30-7.6-41.5-9-2.2-.3-5.1-.8-6.5-1.1-2.8-.5-46.6-1.4-47.1-.9zm42.6 52c4.7.7 13.6 2.1 18.1 3 19.9 3.9 47.6 14.9 65.4 25.9 26.9 16.8 53.1 43.2 68.5 69.2 6.4 10.8 10.5 19.2 15 30.4 3.9 9.8 9 26.5 10 32.8.3 2 .8 4.5 1 5.7 3.1 12.5 3.9 46.9 1.6 63.6-4.9 34.5-17.9 66.9-37.7 93.7-7.8 10.5-8.8 11.7-20.4 23.4-17.1 17.3-33.8 29.4-55.5 39.9-29.8 14.5-59 21-92.5 20.5-16.5-.2-23.4-.9-38.6-3.9-19.8-3.9-47.7-14.9-65.3-25.9-53.8-33.5-88.9-88.4-96.5-151.2-1.2-10.2-1.4-38.1-.3-45 .3-1.7.8-5.7 1.2-9 .3-3.2.8-6.2 1.1-6.6.2-.4.6-2.4.9-4.5 2.4-16.6 14.3-46.6 25.9-65.4 10.2-16.7 30.3-39.7 45.1-51.8 8.6-7.1 27.8-19.2 38.1-24.2 6-2.9 12-5.8 13.4-6.5 4.7-2.4 28.6-9.7 35.4-10.9 4.9-.9 22.9-3.5 26.1-3.9 5-.5 34.7 0 40 .7z"/><path d="M297.3 185.4c-37 37.1-67.3 67.6-67.3 68 0 .8 34.8 35.6 35.6 35.6.4 0 31.1-30.4 68.2-67.6l67.6-67.5-18-18c-9.8-9.8-18.1-17.9-18.4-17.9-.3.1-30.8 30.4-67.7 67.4z"/></svg>